<?xml version="1.0" encoding="utf-8"?>
<!-- Generator: Adobe Illustrator 18.1.1, SVG Export Plug-In . SVG Version: 6.00 Build 0)  -->
<!DOCTYPE svg PUBLIC "-//W3C//DTD SVG 1.1//EN" "http://www.w3.org/Graphics/SVG/1.1/DTD/svg11.dtd">
<svg version="1.1" id="Layer_1" xmlns="http://www.w3.org/2000/svg" xmlns:xlink="http://www.w3.org/1999/xlink" x="0px" y="0px"
	 viewBox="0 0 50 50" enable-background="new 0 0 50 50" xml:space="preserve">
<g>
	<path fill="#EFB075" d="M20.7,20.2c0-2.1-1.4-2.1-1.4-2.1h-0.7h-4.9v4.6H19C19.9,22.7,20.7,22.3,20.7,20.2z"/>
	<path fill="#EFB075" d="M33.8,22.7c-3,0-3.4,3.1-3.4,3.1h6.4C36.7,25.8,36.8,22.7,33.8,22.7z"/>
	<path fill="#EFB075" d="M19.3,25.8h-5.6v5.5h5c0.1,0,0.2,0,0.4,0c0.8,0,2.3-0.3,2.3-2.7C21.4,25.8,19.3,25.8,19.3,25.8z"/>
	<path fill="#EFB075" d="M25-0.1c-13.8,0-25,11.2-25,25s11.2,25,25,25s25-11.2,25-25S38.8-0.1,25-0.1z M29.5,15.7h8v1.9h-8V15.7z
		 M25.5,28.9c0,6.2-6.2,6.5-6.2,6.5h-5.6h-0.2h-4V14.5h4h0.2h5.6c3.1,0,5.5,1.8,5.5,5.4c0,3.6-3,3.9-3,3.9
		C25.8,23.8,25.5,28.9,25.5,28.9z M40.5,28.5h-10c0,3.8,3.4,3.6,3.4,3.6c3.2,0,3.1-2.2,3.1-2.2h3.4c0,5.8-6.6,5.4-6.6,5.4
		c-8,0-7.4-7.8-7.4-7.8s0-7.8,7.4-7.8C41.5,19.7,40.5,28.5,40.5,28.5z"/>
</g>
</svg>
