<?xml version="1.0" encoding="utf-8"?>
<!-- Generator: Adobe Illustrator 18.1.1, SVG Export Plug-In . SVG Version: 6.00 Build 0)  -->
<!DOCTYPE svg PUBLIC "-//W3C//DTD SVG 1.1//EN" "http://www.w3.org/Graphics/SVG/1.1/DTD/svg11.dtd">
<svg version="1.1" id="Layer_1" xmlns="http://www.w3.org/2000/svg" xmlns:xlink="http://www.w3.org/1999/xlink" x="0px" y="0px"
	 viewBox="0 0 50 50" enable-background="new 0 0 50 50" xml:space="preserve">
<path fill="#EFB075" d="M25-0.1c-13.8,0-25,11.2-25,25s11.2,25,25,25s25-11.2,25-25S38.8-0.1,25-0.1z M37.4,18.6c0,0.3,0,0.5,0,0.8
	c0,8.3-6.4,18-18.2,18c-3.6,0-7-1-9.8-2.8c0.5,0.1,1,0.1,1.5,0.1c3,0,5.8-1,8-2.7c-2.8-0.1-5.2-1.9-6-4.4c0.4,0.1,0.8,0.1,1.2,0.1
	c0.6,0,1.2-0.1,1.7-0.2c-2.9-0.6-5.1-3.1-5.1-6.2c0,0,0-0.1,0-0.1c0.9,0.5,1.9,0.8,2.9,0.8c-1.7-1.1-2.9-3.1-2.9-5.3
	c0-1.2,0.3-2.2,0.9-3.2c3.2,3.8,7.9,6.3,13.2,6.6c-0.1-0.5-0.2-0.9-0.2-1.4c0-3.5,2.9-6.3,6.4-6.3c1.8,0,3.5,0.8,4.7,2
	c1.5-0.3,2.8-0.8,4.1-1.5c-0.5,1.5-1.5,2.7-2.8,3.5c1.3-0.2,2.5-0.5,3.7-1C39.8,16.6,38.7,17.7,37.4,18.6z"/>
</svg>
