<?xml version="1.0" encoding="utf-8"?>
<!-- Generator: Adobe Illustrator 18.1.1, SVG Export Plug-In . SVG Version: 6.00 Build 0)  -->
<!DOCTYPE svg PUBLIC "-//W3C//DTD SVG 1.1//EN" "http://www.w3.org/Graphics/SVG/1.1/DTD/svg11.dtd">
<svg version="1.1" id="Layer_1" xmlns="http://www.w3.org/2000/svg" xmlns:xlink="http://www.w3.org/1999/xlink" x="0px" y="0px"
	 viewBox="0 0 50 50" enable-background="new 0 0 50 50" xml:space="preserve">
<path fill="#EFB075" d="M25-0.1c-13.8,0-25,11.2-25,25c0,13.8,11.2,25,25,25c13.8,0,25-11.2,25-25C50,11.1,38.8-0.1,25-0.1z
	 M27.5,31.9c-2,0-3.9-1-4.5-2.2c0,0-1.1,4.1-1.3,4.9c-0.8,2.8-3.2,5.6-3.3,5.9c-0.1,0.2-0.4,0.1-0.4-0.1c-0.1-0.4-0.7-3.9,0.1-6.8
	c0.4-1.5,2.4-9.8,2.4-9.8s-0.6-1.1-0.6-2.8c0-2.7,1.6-4.6,3.6-4.6c1.7,0,2.5,1.2,2.5,2.7c0,1.6-1.1,4.1-1.6,6.4
	c-0.5,1.9,1,3.5,2.9,3.5c3.5,0,5.9-4.4,5.9-9.5c0-3.9-2.7-6.9-7.7-6.9c-5.6,0-9.1,4.1-9.1,8.6c0,1.6,0.5,2.7,1.2,3.5
	c0.3,0.4,0.4,0.5,0.3,1c-0.1,0.3-0.3,1.1-0.4,1.4c-0.1,0.5-0.5,0.6-0.9,0.4c-2.6-1-3.8-3.8-3.8-6.9c0-5.1,4.4-11.2,13.3-11.2
	c7.1,0,11.7,5,11.7,10.3C37.5,26.6,33.5,31.9,27.5,31.9z"/>
</svg>
