<?xml version="1.0" encoding="utf-8"?>
<!-- Generator: Adobe Illustrator 18.1.1, SVG Export Plug-In . SVG Version: 6.00 Build 0)  -->
<!DOCTYPE svg PUBLIC "-//W3C//DTD SVG 1.1//EN" "http://www.w3.org/Graphics/SVG/1.1/DTD/svg11.dtd">
<svg version="1.1" id="Layer_1" xmlns="http://www.w3.org/2000/svg" xmlns:xlink="http://www.w3.org/1999/xlink" x="0px" y="0px"
	 viewBox="0 0 50 50" enable-background="new 0 0 50 50" xml:space="preserve">
<path fill="#EFB075" d="M25-0.1c-13.8,0-25,11.2-25,25s11.2,25,25,25s25-11.2,25-25S38.8-0.1,25-0.1z M16.7,40.5H9.4V19.7h7.3V40.5z
	 M13,16.6c-2,0-3.6-1.6-3.6-3.6c0-2,1.6-3.6,3.6-3.6s3.6,1.6,3.6,3.6C16.7,14.9,15,16.6,13,16.6z M40.6,29.1v11.4h-6.2V30.4
	c0-2.4-0.3-5.5-3.6-5.5c-3.4,0-3.9,2.6-3.9,5.4v10.3h-6.1V19.7h5.8v2.8h0.1c0.9-1.6,3-2.8,6.1-2.8C39.4,19.7,40.6,23.5,40.6,29.1
	L40.6,29.1z"/>
</svg>
