<?xml version="1.0" encoding="utf-8"?>
<!-- Generator: Adobe Illustrator 18.1.1, SVG Export Plug-In . SVG Version: 6.00 Build 0)  -->
<!DOCTYPE svg PUBLIC "-//W3C//DTD SVG 1.1//EN" "http://www.w3.org/Graphics/SVG/1.1/DTD/svg11.dtd">
<svg version="1.1" id="Layer_1" xmlns="http://www.w3.org/2000/svg" xmlns:xlink="http://www.w3.org/1999/xlink" x="0px" y="0px"
	 viewBox="0 0 50 50" enable-background="new 0 0 50 50" xml:space="preserve">
<g>
	<path fill="#EFB075" d="M33.5,25c0,4.7-3.8,8.5-8.5,8.5c-4.7,0-8.5-3.8-8.5-8.5c0-1.1,0.2-2.2,0.6-3.2h-4.7v12.8c0,1.7,1.3,3,3,3
		h19.2c1.7,0,3-1.3,3-3V21.8h-4.7C33.3,22.8,33.5,23.9,33.5,25z"/>
	<path fill="#EFB075" d="M25,30.5c3,0,5.5-2.5,5.5-5.5c0-1.2-0.4-2.3-1-3.2c-1-1.4-2.6-2.3-4.5-2.3c-1.8,0-3.5,0.9-4.5,2.3
		c-0.7,0.9-1,2-1,3.2C19.5,28,22,30.5,25,30.5z"/>
	<polygon fill="#EFB075" points="37,18.3 37,13.7 37,13 36.3,13 31.7,13 31.7,18.3 	"/>
	<path fill="#EFB075" d="M25,0C11.2,0,0,11.2,0,25s11.2,25,25,25c13.8,0,25-11.2,25-25S38.8,0,25,0z M40.6,21.8v12.8
		c0,3.3-2.7,6-6,6H15.4c-3.3,0-6-2.7-6-6V21.8v-6.4c0-3.3,2.7-6,6-6h19.2c3.3,0,6,2.7,6,6V21.8z"/>
</g>
</svg>
